<mxfile host="app.diagrams.net" modified="2022-09-20T03:23:44.284Z" agent="5.0 (Windows NT 10.0; Win64; x64) AppleWebKit/537.36 (KHTML, like Gecko) Chrome/105.0.0.0 Safari/537.36" etag="OMGRXA0CCaPb7CSRezQD" version="20.3.3" type="github">
  <diagram name="Page-1" id="c4acf3e9-155e-7222-9cf6-157b1a14988f">
    <mxGraphModel dx="1138" dy="669" grid="1" gridSize="10" guides="1" tooltips="1" connect="1" arrows="1" fold="1" page="1" pageScale="1" pageWidth="850" pageHeight="1100" background="none" math="0" shadow="0">
      <root>
        <mxCell id="0" />
        <mxCell id="1" parent="0" />
        <mxCell id="A3D3szaBf5EksVJKjazq-70" style="edgeStyle=orthogonalEdgeStyle;rounded=0;orthogonalLoop=1;jettySize=auto;html=1;entryX=0.5;entryY=0;entryDx=0;entryDy=0;" edge="1" parent="1" source="A3D3szaBf5EksVJKjazq-35" target="A3D3szaBf5EksVJKjazq-37">
          <mxGeometry relative="1" as="geometry" />
        </mxCell>
        <mxCell id="A3D3szaBf5EksVJKjazq-35" value="Modelo" style="shape=folder;fontStyle=1;spacingTop=10;tabWidth=40;tabHeight=14;tabPosition=left;html=1;" vertex="1" parent="1">
          <mxGeometry x="360" y="40" width="70" height="50" as="geometry" />
        </mxCell>
        <mxCell id="A3D3szaBf5EksVJKjazq-37" value="USUARIO" style="swimlane;fontStyle=1;align=center;verticalAlign=top;childLayout=stackLayout;horizontal=1;startSize=26;horizontalStack=0;resizeParent=1;resizeParentMax=0;resizeLast=0;collapsible=1;marginBottom=0;" vertex="1" parent="1">
          <mxGeometry x="315" y="130" width="160" height="124" as="geometry" />
        </mxCell>
        <mxCell id="A3D3szaBf5EksVJKjazq-38" value="- idUsuario: int&#xa;- contraseña: String&#xa;- nombre: String&#xa;- estadodeIngreso: String" style="text;strokeColor=none;fillColor=none;align=left;verticalAlign=top;spacingLeft=4;spacingRight=4;overflow=hidden;rotatable=0;points=[[0,0.5],[1,0.5]];portConstraint=eastwest;" vertex="1" parent="A3D3szaBf5EksVJKjazq-37">
          <mxGeometry y="26" width="160" height="64" as="geometry" />
        </mxCell>
        <mxCell id="A3D3szaBf5EksVJKjazq-39" value="" style="line;strokeWidth=1;fillColor=none;align=left;verticalAlign=middle;spacingTop=-1;spacingLeft=3;spacingRight=3;rotatable=0;labelPosition=right;points=[];portConstraint=eastwest;strokeColor=inherit;" vertex="1" parent="A3D3szaBf5EksVJKjazq-37">
          <mxGeometry y="90" width="160" height="8" as="geometry" />
        </mxCell>
        <mxCell id="A3D3szaBf5EksVJKjazq-40" value="+ verificarIngreso(): Boolean" style="text;strokeColor=none;fillColor=none;align=left;verticalAlign=top;spacingLeft=4;spacingRight=4;overflow=hidden;rotatable=0;points=[[0,0.5],[1,0.5]];portConstraint=eastwest;" vertex="1" parent="A3D3szaBf5EksVJKjazq-37">
          <mxGeometry y="98" width="160" height="26" as="geometry" />
        </mxCell>
        <mxCell id="A3D3szaBf5EksVJKjazq-41" value="CLIENTE" style="swimlane;fontStyle=1;align=center;verticalAlign=top;childLayout=stackLayout;horizontal=1;startSize=30;horizontalStack=0;resizeParent=1;resizeParentMax=0;resizeLast=0;collapsible=1;marginBottom=0;" vertex="1" parent="1">
          <mxGeometry x="140" y="310" width="160" height="174" as="geometry">
            <mxRectangle x="140" y="310" width="90" height="30" as="alternateBounds" />
          </mxGeometry>
        </mxCell>
        <mxCell id="A3D3szaBf5EksVJKjazq-42" value="- correo: String&#xa;- edad: int" style="text;strokeColor=none;fillColor=none;align=left;verticalAlign=top;spacingLeft=4;spacingRight=4;overflow=hidden;rotatable=0;points=[[0,0.5],[1,0.5]];portConstraint=eastwest;" vertex="1" parent="A3D3szaBf5EksVJKjazq-41">
          <mxGeometry y="30" width="160" height="40" as="geometry" />
        </mxCell>
        <mxCell id="A3D3szaBf5EksVJKjazq-43" value="" style="line;strokeWidth=1;fillColor=none;align=left;verticalAlign=middle;spacingTop=-1;spacingLeft=3;spacingRight=3;rotatable=0;labelPosition=right;points=[];portConstraint=eastwest;strokeColor=inherit;" vertex="1" parent="A3D3szaBf5EksVJKjazq-41">
          <mxGeometry y="70" width="160" height="8" as="geometry" />
        </mxCell>
        <mxCell id="A3D3szaBf5EksVJKjazq-44" value="+ registrar()&#xa;+ ingresar()&#xa;+ actualizarPerfil()&#xa;+ reservar()&#xa;+ enviarMensaje()&#xa;+ comentar()" style="text;strokeColor=none;fillColor=none;align=left;verticalAlign=top;spacingLeft=4;spacingRight=4;overflow=hidden;rotatable=0;points=[[0,0.5],[1,0.5]];portConstraint=eastwest;" vertex="1" parent="A3D3szaBf5EksVJKjazq-41">
          <mxGeometry y="78" width="160" height="96" as="geometry" />
        </mxCell>
        <mxCell id="A3D3szaBf5EksVJKjazq-45" value="ADMINISTRADOR" style="swimlane;fontStyle=1;align=center;verticalAlign=top;childLayout=stackLayout;horizontal=1;startSize=26;horizontalStack=0;resizeParent=1;resizeParentMax=0;resizeLast=0;collapsible=1;marginBottom=0;" vertex="1" parent="1">
          <mxGeometry x="500" y="320" width="160" height="90" as="geometry" />
        </mxCell>
        <mxCell id="A3D3szaBf5EksVJKjazq-47" value="" style="line;strokeWidth=1;fillColor=none;align=left;verticalAlign=middle;spacingTop=-1;spacingLeft=3;spacingRight=3;rotatable=0;labelPosition=right;points=[];portConstraint=eastwest;strokeColor=inherit;" vertex="1" parent="A3D3szaBf5EksVJKjazq-45">
          <mxGeometry y="26" width="160" height="8" as="geometry" />
        </mxCell>
        <mxCell id="A3D3szaBf5EksVJKjazq-48" value="+ cambiarEstado()&#xa;+ leerMensaje()&#xa;+ leerComentarios()" style="text;strokeColor=none;fillColor=none;align=left;verticalAlign=top;spacingLeft=4;spacingRight=4;overflow=hidden;rotatable=0;points=[[0,0.5],[1,0.5]];portConstraint=eastwest;" vertex="1" parent="A3D3szaBf5EksVJKjazq-45">
          <mxGeometry y="34" width="160" height="56" as="geometry" />
        </mxCell>
        <mxCell id="A3D3szaBf5EksVJKjazq-60" value="Extends" style="endArrow=block;endSize=16;endFill=0;html=1;rounded=0;exitX=1.003;exitY=0.762;exitDx=0;exitDy=0;entryX=0.304;entryY=0.962;entryDx=0;entryDy=0;edgeStyle=orthogonalEdgeStyle;entryPerimeter=0;exitPerimeter=0;" edge="1" parent="1" source="A3D3szaBf5EksVJKjazq-42" target="A3D3szaBf5EksVJKjazq-40">
          <mxGeometry x="0.0938" width="160" relative="1" as="geometry">
            <mxPoint x="340" y="430" as="sourcePoint" />
            <mxPoint x="500" y="430" as="targetPoint" />
            <mxPoint as="offset" />
          </mxGeometry>
        </mxCell>
        <mxCell id="A3D3szaBf5EksVJKjazq-61" value="Extends" style="endArrow=block;endSize=16;endFill=0;html=1;rounded=0;exitX=-0.012;exitY=0.304;exitDx=0;exitDy=0;edgeStyle=orthogonalEdgeStyle;exitPerimeter=0;" edge="1" parent="1" source="A3D3szaBf5EksVJKjazq-48">
          <mxGeometry x="0.086" width="160" relative="1" as="geometry">
            <mxPoint x="500.48" y="359.00800000000004" as="sourcePoint" />
            <mxPoint x="430" y="250" as="targetPoint" />
            <mxPoint as="offset" />
          </mxGeometry>
        </mxCell>
        <mxCell id="A3D3szaBf5EksVJKjazq-62" value="RESERVA" style="swimlane;fontStyle=1;align=center;verticalAlign=top;childLayout=stackLayout;horizontal=1;startSize=26;horizontalStack=0;resizeParent=1;resizeParentMax=0;resizeLast=0;collapsible=1;marginBottom=0;" vertex="1" parent="1">
          <mxGeometry x="140" y="570" width="160" height="200" as="geometry" />
        </mxCell>
        <mxCell id="A3D3szaBf5EksVJKjazq-63" value="- identificador: int&#xa;- estado: String&#xa;- fechaRealización: int&#xa;- duración: int&#xa;- cliente: string&#xa;- númerohuespedes: int&#xa;- costo: double&#xa;- idcabaña: int" style="text;strokeColor=none;fillColor=none;align=left;verticalAlign=top;spacingLeft=4;spacingRight=4;overflow=hidden;rotatable=0;points=[[0,0.5],[1,0.5]];portConstraint=eastwest;" vertex="1" parent="A3D3szaBf5EksVJKjazq-62">
          <mxGeometry y="26" width="160" height="114" as="geometry" />
        </mxCell>
        <mxCell id="A3D3szaBf5EksVJKjazq-64" value="" style="line;strokeWidth=1;fillColor=none;align=left;verticalAlign=middle;spacingTop=-1;spacingLeft=3;spacingRight=3;rotatable=0;labelPosition=right;points=[];portConstraint=eastwest;strokeColor=inherit;" vertex="1" parent="A3D3szaBf5EksVJKjazq-62">
          <mxGeometry y="140" width="160" height="30" as="geometry" />
        </mxCell>
        <mxCell id="A3D3szaBf5EksVJKjazq-71" value="+ Modificar()" style="text;html=1;align=left;verticalAlign=middle;resizable=0;points=[];autosize=1;strokeColor=none;fillColor=none;" vertex="1" parent="A3D3szaBf5EksVJKjazq-62">
          <mxGeometry y="170" width="160" height="30" as="geometry" />
        </mxCell>
        <mxCell id="A3D3szaBf5EksVJKjazq-66" value="" style="endArrow=diamondThin;endFill=1;endSize=24;html=1;rounded=0;exitX=0.5;exitY=0;exitDx=0;exitDy=0;" edge="1" parent="1" source="A3D3szaBf5EksVJKjazq-62" target="A3D3szaBf5EksVJKjazq-44">
          <mxGeometry width="160" relative="1" as="geometry">
            <mxPoint x="350" y="510" as="sourcePoint" />
            <mxPoint x="510" y="510" as="targetPoint" />
          </mxGeometry>
        </mxCell>
        <mxCell id="A3D3szaBf5EksVJKjazq-68" value="0.. *" style="edgeLabel;html=1;align=center;verticalAlign=middle;resizable=0;points=[];" vertex="1" connectable="0" parent="A3D3szaBf5EksVJKjazq-66">
          <mxGeometry x="0.384" y="3" relative="1" as="geometry">
            <mxPoint x="-17" y="49" as="offset" />
          </mxGeometry>
        </mxCell>
        <mxCell id="A3D3szaBf5EksVJKjazq-69" value="1" style="edgeLabel;html=1;align=center;verticalAlign=middle;resizable=0;points=[];" vertex="1" connectable="0" parent="A3D3szaBf5EksVJKjazq-66">
          <mxGeometry x="0.608" relative="1" as="geometry">
            <mxPoint x="-20" as="offset" />
          </mxGeometry>
        </mxCell>
        <mxCell id="A3D3szaBf5EksVJKjazq-73" value="MENSAJE" style="swimlane;fontStyle=1;align=center;verticalAlign=top;childLayout=stackLayout;horizontal=1;startSize=26;horizontalStack=0;resizeParent=1;resizeParentMax=0;resizeLast=0;collapsible=1;marginBottom=0;" vertex="1" parent="1">
          <mxGeometry x="320" y="570" width="160" height="86" as="geometry" />
        </mxCell>
        <mxCell id="A3D3szaBf5EksVJKjazq-74" value="+ field: type" style="text;strokeColor=none;fillColor=none;align=left;verticalAlign=top;spacingLeft=4;spacingRight=4;overflow=hidden;rotatable=0;points=[[0,0.5],[1,0.5]];portConstraint=eastwest;" vertex="1" parent="A3D3szaBf5EksVJKjazq-73">
          <mxGeometry y="26" width="160" height="26" as="geometry" />
        </mxCell>
        <mxCell id="A3D3szaBf5EksVJKjazq-75" value="" style="line;strokeWidth=1;fillColor=none;align=left;verticalAlign=middle;spacingTop=-1;spacingLeft=3;spacingRight=3;rotatable=0;labelPosition=right;points=[];portConstraint=eastwest;strokeColor=inherit;" vertex="1" parent="A3D3szaBf5EksVJKjazq-73">
          <mxGeometry y="52" width="160" height="8" as="geometry" />
        </mxCell>
        <mxCell id="A3D3szaBf5EksVJKjazq-76" value="+ method(type): type" style="text;strokeColor=none;fillColor=none;align=left;verticalAlign=top;spacingLeft=4;spacingRight=4;overflow=hidden;rotatable=0;points=[[0,0.5],[1,0.5]];portConstraint=eastwest;" vertex="1" parent="A3D3szaBf5EksVJKjazq-73">
          <mxGeometry y="60" width="160" height="26" as="geometry" />
        </mxCell>
        <mxCell id="A3D3szaBf5EksVJKjazq-77" value="COMENTARIO" style="swimlane;fontStyle=1;align=center;verticalAlign=top;childLayout=stackLayout;horizontal=1;startSize=26;horizontalStack=0;resizeParent=1;resizeParentMax=0;resizeLast=0;collapsible=1;marginBottom=0;" vertex="1" parent="1">
          <mxGeometry x="500" y="570" width="160" height="86" as="geometry" />
        </mxCell>
        <mxCell id="A3D3szaBf5EksVJKjazq-78" value="+ field: type" style="text;strokeColor=none;fillColor=none;align=left;verticalAlign=top;spacingLeft=4;spacingRight=4;overflow=hidden;rotatable=0;points=[[0,0.5],[1,0.5]];portConstraint=eastwest;" vertex="1" parent="A3D3szaBf5EksVJKjazq-77">
          <mxGeometry y="26" width="160" height="26" as="geometry" />
        </mxCell>
        <mxCell id="A3D3szaBf5EksVJKjazq-79" value="" style="line;strokeWidth=1;fillColor=none;align=left;verticalAlign=middle;spacingTop=-1;spacingLeft=3;spacingRight=3;rotatable=0;labelPosition=right;points=[];portConstraint=eastwest;strokeColor=inherit;" vertex="1" parent="A3D3szaBf5EksVJKjazq-77">
          <mxGeometry y="52" width="160" height="8" as="geometry" />
        </mxCell>
        <mxCell id="A3D3szaBf5EksVJKjazq-80" value="+ method(type): type" style="text;strokeColor=none;fillColor=none;align=left;verticalAlign=top;spacingLeft=4;spacingRight=4;overflow=hidden;rotatable=0;points=[[0,0.5],[1,0.5]];portConstraint=eastwest;" vertex="1" parent="A3D3szaBf5EksVJKjazq-77">
          <mxGeometry y="60" width="160" height="26" as="geometry" />
        </mxCell>
      </root>
    </mxGraphModel>
  </diagram>
</mxfile>
